<svg xmlns="http://www.w3.org/2000/svg" xmlns:xlink="http://www.w3.org/1999/xlink" width="24" height="24" x="0" y="0" style="overflow:visible;enable-background:new -2 0 24 24" preserveAspectRatio="xMinYMid meet" version="1.1" viewBox="-2 0 24 24" xml:space="preserve"><linearGradient id="SVGID_1_" x1="9.999" x2="9.999" y1="0" y2="24" gradientUnits="userSpaceOnUse"><stop offset="0" style="stop-color:#95bff8"/><stop offset=".557" style="stop-color:#84adef"/><stop offset="1" style="stop-color:#7ca4eb"/></linearGradient><polygon style="fill:url(#SVGID_1_)" points="12.5 0 11.5 0 1 0 0 0 0 24 1 24 19 24 20 24 20 7.9"/><linearGradient id="SVGID_2_" x1="9.999" x2="9.999" y1="1" y2="23" gradientUnits="userSpaceOnUse"><stop offset="0" style="stop-color:#e7f4fc"/><stop offset="1" style="stop-color:#deeffc"/></linearGradient><polygon style="fill:url(#SVGID_2_)" points="12.1 1 11.1 1 2 1 1 1 1 23 2 23 18 23 19 23 19 8.3"/><linearGradient id="SVGID_3_" x1="9.999" x2="9.999" y1="2" y2="22" gradientUnits="userSpaceOnUse"><stop offset="0" style="stop-color:#cee9f9"/><stop offset="1" style="stop-color:#bbdff8"/></linearGradient><polygon style="fill:url(#SVGID_3_)" points="11.6 2 10.6 2 3 2 2 2 2 22 3 22 17 22 18 22 18 8.7"/><path style="fill:#fff" d="M16,21H4v-1h12V21z M16,18H4v1h12V18z M16,16H4v1h12V16z M16,14H4v1h12V14z"/><linearGradient id="SVGID_4_" x1="9.999" x2="9.999" y1="4" y2="12" gradientUnits="userSpaceOnUse"><stop offset="0" style="stop-color:#76a1f0"/><stop offset="1" style="stop-color:#6b90d5"/></linearGradient><polygon style="fill:url(#SVGID_4_)" points="15.3 4 14.3 4 4 4 3 4 3 12 4 12 16 12 17 12 17 5.8"/><linearGradient id="SVGID_5_" x1="9.999" x2="9.999" y1="9" y2="11" gradientUnits="userSpaceOnUse"><stop offset="0" style="stop-color:#57c3f6"/><stop offset=".165" style="stop-color:#83d3f8"/><stop offset=".355" style="stop-color:#afe3fb"/><stop offset=".54" style="stop-color:#d2effd"/><stop offset=".713" style="stop-color:#ebf8fe"/><stop offset=".871" style="stop-color:#fafdff"/><stop offset="1" style="stop-color:#fff"/></linearGradient><rect style="fill:url(#SVGID_5_)" width="12" height="2" x="4" y="9"/><path style="fill:#f2efd5" d="M12.4,10.9c-0.5-0.2-1.1-0.3-2.7-0.4c-1.5-0.1-0.9-0.4-2-0.8C6.7,9.2,4,9.4,4,9.4V11h8.6	C12.6,11,12.5,10.9,12.4,10.9z"/><linearGradient id="SVGID_6_" x1="4" x2="12.296" y1="10.248" y2="10.248" gradientUnits="userSpaceOnUse"><stop offset="0" style="stop-color:#f8e5b5"/><stop offset="1" style="stop-color:#f9e5b6"/></linearGradient><path style="fill:url(#SVGID_6_)" d="M9.7,10.7c-1.5-0.1-0.9-0.6-2-1c-1-0.4-3.7,0-3.7,0V11h8.3C11.5,11,11.2,10.8,9.7,10.7z"/><linearGradient id="SVGID_7_" x1="12.534" x2="8.163" y1="1.567" y2="10.941" gradientUnits="userSpaceOnUse"><stop offset="0" style="stop-color:#57c3f6"/><stop offset=".229" style="stop-color:#8ad5f9"/><stop offset=".483" style="stop-color:#bce7fb"/><stop offset=".705" style="stop-color:#e1f4fd"/><stop offset=".885" style="stop-color:#f7fcff"/><stop offset="1" style="stop-color:#fff"/></linearGradient><rect style="fill:url(#SVGID_7_)" width="12" height="4" x="4" y="5"/><path style="fill:#fff" d="M11.2,5.6c0,0-0.2-0.4-0.7-0.2c-0.4,0.3-0.1,0.7-0.1,0.7s-0.1,0-0.1,0c-0.1,0,0,0.2,0,0.2	s-0.3,0-0.4,0.2C9.6,6.9,9.8,7,9.8,7S9.3,7.4,9.6,7.8c0.3,0.4,0.6,0.1,0.6,0.1s0.2,0.3,0.6,0.3c0.4,0.1,0.6-0.1,0.6-0.1	s0.3,0.2,0.5,0.1C12.4,8.2,12.5,8,12.5,8s0.6,0.3,0.8-0.3C13.4,7.3,13,7.1,13,7.1s0.1-0.4-0.2-0.6s-0.6,0-0.6,0s0.1,0,0-0.1	c0-0.1-0.3-0.1-0.3-0.1s0.1-0.6-0.2-0.8C11.4,5.3,11.2,5.6,11.2,5.6z"/><path style="fill:#fff" d="M8.6,6.9c0,0-0.1-0.1-0.2,0C8.3,6.9,8.4,7,8.4,7s0,0,0,0c0,0,0,0,0,0s-0.1,0-0.1,0.1	c0,0.1,0,0.1,0,0.1s-0.1,0.1,0,0.2c0.1,0.1,0.2,0,0.2,0s0.1,0.1,0.2,0.1c0.1,0,0.2,0,0.2,0s0.1,0.1,0.2,0C9,7.6,9,7.6,9,7.6	s0.2,0.1,0.2-0.1c0-0.1-0.1-0.2-0.1-0.2s0-0.1-0.1-0.2c-0.1,0-0.2,0-0.2,0s0,0,0,0s-0.1,0-0.1,0s0-0.2-0.1-0.2	C8.7,6.8,8.6,6.9,8.6,6.9z"/><linearGradient id="SVGID_8_" x1="15.245" x2="15.245" y1="0" y2="9.359" gradientUnits="userSpaceOnUse"><stop offset="0" style="stop-color:#95bff8"/><stop offset=".557" style="stop-color:#84adef"/><stop offset="1" style="stop-color:#7ca4eb"/></linearGradient><path style="fill:url(#SVGID_8_)" d="M11,9c0,0,5.2-1.5,9,0.4c0-0.1,0-1.5,0-1.5L12.5,0c0,0-1.8,0-2,0C13.1,3.7,11,9,11,9z"/><linearGradient id="SVGID_9_" x1="12.322" x2="15.45" y1="7.545" y2="4.417" gradientUnits="userSpaceOnUse"><stop offset="0" style="stop-color:#e7f4fc"/><stop offset=".518" style="stop-color:#e5f3fc"/><stop offset=".705" style="stop-color:#def0fb"/><stop offset=".837" style="stop-color:#d3ebfa"/><stop offset=".872" style="stop-color:#cee9f9"/><stop offset="1" style="stop-color:#bdd8f0"/></linearGradient><path style="fill:url(#SVGID_9_)" d="M18.5,7.8c-0.9-0.2-2-0.3-3.1-0.3c-1.1,0-2.1,0.1-3,0.3c0.4-1.6,0.7-4.1-0.2-6.4L18.5,7.8z"/></svg>